<svg id="Capa_1" enable-background="new 0 0 512 512" height="512" viewBox="0 0 512 512" width="512" xmlns="http://www.w3.org/2000/svg"><g><path d="m353.062 171.366h-30.474c-4.143 0-7.5 3.357-7.5 7.5s3.357 7.5 7.5 7.5h30.474c4.143 0 7.5-3.357 7.5-7.5s-3.357-7.5-7.5-7.5z"/><path d="m113.074 186.366h143.474c4.143 0 7.5-3.357 7.5-7.5s-3.357-7.5-7.5-7.5h-143.474c-4.143 0-7.5 3.357-7.5 7.5s3.358 7.5 7.5 7.5z"/><path d="m353.062 226.512h-30.474c-4.143 0-7.5 3.357-7.5 7.5s3.357 7.5 7.5 7.5h30.474c4.143 0 7.5-3.357 7.5-7.5s-3.357-7.5-7.5-7.5z"/><path d="m113.074 241.512h143.474c4.143 0 7.5-3.357 7.5-7.5s-3.357-7.5-7.5-7.5h-143.474c-4.143 0-7.5 3.357-7.5 7.5s3.358 7.5 7.5 7.5z"/><path d="m361.231 419.621v-26.042c0-7.078-5.759-12.837-12.837-12.837h-36.67c-7.078 0-12.837 5.759-12.837 12.837v26.042c0 7.078 5.759 12.837 12.837 12.837h36.67c7.079 0 12.837-5.759 12.837-12.837zm-15-2.163h-32.344v-21.716h32.344z"/><path d="m306.388 459.487c-4.143 0-7.5 3.357-7.5 7.5s3.357 7.5 7.5 7.5h16.2c4.143 0 7.5-3.357 7.5-7.5s-3.357-7.5-7.5-7.5z"/><path d="m353.062 474.487h16.2c4.143 0 7.5-3.357 7.5-7.5s-3.357-7.5-7.5-7.5h-16.2c-4.143 0-7.5 3.357-7.5 7.5s3.358 7.5 7.5 7.5z"/><path d="m399.737 459.487c-4.143 0-7.5 3.357-7.5 7.5s3.357 7.5 7.5 7.5h16.2c4.143 0 7.5-3.357 7.5-7.5s-3.357-7.5-7.5-7.5z"/><path d="m462.612 459.487h-16.2c-4.143 0-7.5 3.357-7.5 7.5s3.357 7.5 7.5 7.5h16.2c4.143 0 7.5-3.357 7.5-7.5s-3.357-7.5-7.5-7.5z"/><path d="m495.961 344.701h-50.961v-66.208c0-6.948-5.652-12.601-12.6-12.601h-28.87v-229.8c0-19.09-15.53-34.62-34.62-34.62h-235.98c-4.143 0-7.5 3.357-7.5 7.5s3.357 7.5 7.5 7.5h235.98c10.818 0 19.62 8.802 19.62 19.62v229.8h-185.93c-6.947 0-12.6 5.652-12.6 12.601v3.17h-76.93c-4.143 0-7.5 3.357-7.5 7.5s3.357 7.5 7.5 7.5h76.93v40.14h-76.93c-4.143 0-7.5 3.357-7.5 7.5s3.357 7.5 7.5 7.5h76.93v52.66c0 6.947 5.652 12.6 12.6 12.6h54.4v46.4h-185.25c-1.379 0-2.5-1.121-2.5-2.5v-424.871c0-7.278-2.258-14.04-6.11-19.62h34.79c4.143 0 7.5-3.357 7.5-7.5s-3.357-7.5-7.5-7.5h-63.3c-.13 0-.257.013-.386.02-.092-.002-.182-.01-.275-.009-18.731.352-33.969 15.881-33.969 34.614v120.42c0 9.649 7.851 17.5 17.5 17.5h36.75v286.945c0 9.649 7.851 17.5 17.5 17.5h185.25v16.027c0 8.844 7.195 16.038 16.039 16.038h170.314c4.143 0 7.5-3.357 7.5-7.5s-3.357-7.5-7.5-7.5h-170.314c-.573 0-1.039-.466-1.039-1.038v-133.749c0-.573.466-1.039 1.039-1.039h222.922c.573 0 1.039.466 1.039 1.039v133.75c0 .572-.466 1.038-1.039 1.038h-17.607c-4.143 0-7.5 3.357-7.5 7.5s3.357 7.5 7.5 7.5h17.607c8.844 0 16.039-7.194 16.039-16.038v-133.75c0-8.844-7.195-16.039-16.039-16.039zm-478.461-185.684c-1.379 0-2.5-1.121-2.5-2.5v-120.42c0-10.617 8.636-19.417 19.25-19.616.079-.001.155-.012.233-.016.049.001.097.007.147.007 10.818 0 19.62 8.802 19.62 19.62v122.925zm412.5 148.026c-13.061-2.842-23.373-13.114-26.28-26.151h26.28zm-225-26.151h26.28c-2.907 13.037-13.219 23.309-26.28 26.151zm0 95.018c13.062 2.842 23.374 13.115 26.28 26.152h-26.28zm52-15.17v41.322h-10.456c-3.258-21.327-20.194-38.21-41.544-41.397v-38.377c21.35-3.187 38.285-20.07 41.543-41.396h141.913c3.258 21.326 20.194 38.209 41.543 41.396v22.413h-90.299c-2.863-4.215-7.478-7.615-13.481-9.827l-2.328-.855c-6.543-2.401-9.827-3.606-12.794-5.222-.87-.474-1.248-1.315-1.126-2.502.165-1.601 1.352-3.616 4.18-4.471 7.49-2.255 14.497 3.244 14.724 3.424 3.17 2.626 7.871 2.208 10.525-.948 2.666-3.17 2.257-7.901-.913-10.567-.341-.287-5.659-4.669-13.485-6.578v-4.382c0-4.143-3.357-7.5-7.5-7.5s-7.5 3.357-7.5 7.5v4.641c-.061.018-.12.031-.181.049-8.144 2.46-13.941 9.248-14.771 17.294-.745 7.23 2.654 13.825 8.873 17.213 1.847 1.006 3.681 1.852 5.826 2.731h-36.711c-8.843 0-16.038 7.195-16.038 16.039z"/><path d="m462.612 389.197h-16.2c-4.143 0-7.5 3.357-7.5 7.5s3.357 7.5 7.5 7.5h16.2c4.143 0 7.5-3.357 7.5-7.5s-3.357-7.5-7.5-7.5z"/><path d="m241.311 46.986c-4.143 0-7.5 3.357-7.5 7.5v67.196c0 3.655 2.635 6.777 6.237 7.393 1.723.295 21.929.124 24.854.107 4.142-.023 7.48-3.399 7.458-7.542-.023-4.128-3.376-7.458-7.499-7.458-.015 0-11.568.053-16.051.057v-59.753c.001-4.143-3.357-7.5-7.499-7.5z"/><path d="m291.347 46.986c-4.143 0-7.5 3.357-7.5 7.5v67.196c0 3.655 2.635 6.777 6.237 7.393 1.723.295 21.929.124 24.854.107 4.142-.023 7.481-3.399 7.458-7.542-.023-4.128-3.376-7.458-7.499-7.458-.015 0-11.568.053-16.051.057v-59.753c.001-4.143-3.357-7.5-7.499-7.5z"/><path d="m219.301 121.739v-67.253c0-4.143-3.357-7.5-7.5-7.5s-7.5 3.357-7.5 7.5v67.253c0 4.143 3.357 7.5 7.5 7.5s7.5-3.358 7.5-7.5z"/><path d="m162.419 46.986h-19.535c-4.143 0-7.5 3.357-7.5 7.5v67.253c0 4.128 3.346 7.5 7.5 7.5.011 0 17.996-.08 22.947-.08 14.117 0 25.602-11.485 25.602-25.603 0-8.339-4.009-15.757-10.199-20.435 2.617-3.73 4.16-8.267 4.16-13.16 0-12.669-10.307-22.975-22.975-22.975zm0 15c4.397 0 7.975 3.578 7.975 7.976s-3.577 7.975-7.975 7.975c-1.455 0-12.035.019-12.035.019v-15.97zm3.412 52.173c-2.829 0-9.892.026-15.447.049v-21.235c1.58-.006 15.447-.018 15.447-.018 5.846 0 10.602 4.756 10.602 10.602s-4.756 10.602-10.602 10.602z"/></g></svg>